<?xml version="1.0" encoding="utf-8"?>
<!-- Generator: Adobe Illustrator 25.2.0, SVG Export Plug-In . SVG Version: 6.00 Build 0)  -->
<svg version="1.1" id="Laag_1" xmlns="http://www.w3.org/2000/svg" xmlns:xlink="http://www.w3.org/1999/xlink" x="0px" y="0px"
	 width="24px" height="24px" viewBox="0 0 24 24" style="enable-background:new 0 0 24 24;" xml:space="preserve">
<style type="text/css">
	.st0{fill:#D9D9D9;}
	.st1{fill-rule:evenodd;clip-rule:evenodd;fill:#D2B224;}
</style>
<path class="st0" d="M8.5,0C8.2,0,8,0.2,8,0.5V7H6.9C6.4,7,6,7.4,6,7.9v15.3C6,23.6,6.4,24,6.9,24h10.3c0.5,0,0.9-0.4,0.9-0.9V7.9
	C18,7.4,17.6,7,17.1,7H16V0.5C16,0.2,15.8,0,15.5,0H8.5z"/>
<path class="st1" d="M10,1H9v6h1V1z M15,1h-1v6h1V1z M11,3h2v4h-2V3z M12,19.7c2.4,0,4.3-1.9,4.3-4.3c0-2.4-1.9-4.3-4.3-4.3
	c-2.4,0-4.3,1.9-4.3,4.3C7.7,17.8,9.6,19.7,12,19.7z M11.7,16.2l-1.6-2.9h1.1l1,1.7l0.7-1.7H14l-1.2,3L12,18.2h-1L11.7,16.2z"/>
</svg>
