<svg width="24" height="24" viewBox="0 0 24 24" fill="none" xmlns="http://www.w3.org/2000/svg">
<path d="M6.09375 3.86719H11.4258C13.8555 3.86719 15.6172 4.21484 16.7109 4.91016C17.8125 5.59766 18.3633 6.69531 18.3633 8.20312C18.3633 9.22656 18.1211 10.0664 17.6367 10.7227C17.1602 11.3789 16.5234 11.7734 15.7266 11.9062V12.0234C16.8125 12.2656 17.5938 12.7188 18.0703 13.3828C18.5547 14.0469 18.7969 14.9297 18.7969 16.0312C18.7969 17.5938 18.2305 18.8125 17.0977 19.6875C15.9727 20.5625 14.4414 21 12.5039 21H6.09375V3.86719ZM9.72656 10.6523H11.8359C12.8203 10.6523 13.5312 10.5 13.9688 10.1953C14.4141 9.89062 14.6367 9.38672 14.6367 8.68359C14.6367 8.02734 14.3945 7.55859 13.9102 7.27734C13.4336 6.98828 12.6758 6.84375 11.6367 6.84375H9.72656V10.6523ZM9.72656 13.5352V18H12.0938C13.0938 18 13.832 17.8086 14.3086 17.4258C14.7852 17.043 15.0234 16.457 15.0234 15.668C15.0234 14.2461 14.0078 13.5352 11.9766 13.5352H9.72656Z" fill="#DADADA"/>
</svg>
