<svg width="24" height="24" viewBox="0 0 24 24" fill="none" xmlns="http://www.w3.org/2000/svg">
<path d="M10.2539 11.9297H11.4492C12.5664 11.9297 13.4023 11.7109 13.957 11.2734C14.5117 10.8281 14.7891 10.1836 14.7891 9.33984C14.7891 8.48828 14.5547 7.85938 14.0859 7.45312C13.625 7.04688 12.8984 6.84375 11.9062 6.84375H10.2539V11.9297ZM18.457 9.21094C18.457 11.0547 17.8789 12.4648 16.7227 13.4414C15.5742 14.418 13.9375 14.9062 11.8125 14.9062H10.2539V21H6.62109V3.86719H12.0938C14.1719 3.86719 15.75 4.31641 16.8281 5.21484C17.9141 6.10547 18.457 7.4375 18.457 9.21094Z" fill="#DADADA"/>
</svg>
