<svg width="24" height="24" viewBox="0 0 24 24" fill="none" xmlns="http://www.w3.org/2000/svg">
<path d="M17.6602 16.2422C17.6602 17.7891 17.1016 19.0078 15.9844 19.8984C14.875 20.7891 13.3281 21.2344 11.3438 21.2344C9.51562 21.2344 7.89844 20.8906 6.49219 20.2031V16.8281C7.64844 17.3438 8.625 17.707 9.42188 17.918C10.2266 18.1289 10.9609 18.2344 11.625 18.2344C12.4219 18.2344 13.0312 18.082 13.4531 17.7773C13.8828 17.4727 14.0977 17.0195 14.0977 16.418C14.0977 16.082 14.0039 15.7852 13.8164 15.5273C13.6289 15.2617 13.3516 15.0078 12.9844 14.7656C12.625 14.5234 11.8867 14.1367 10.7695 13.6055C9.72266 13.1133 8.9375 12.6406 8.41406 12.1875C7.89062 11.7344 7.47266 11.207 7.16016 10.6055C6.84766 10.0039 6.69141 9.30078 6.69141 8.49609C6.69141 6.98047 7.20312 5.78906 8.22656 4.92188C9.25781 4.05469 10.6797 3.62109 12.4922 3.62109C13.3828 3.62109 14.2305 3.72656 15.0352 3.9375C15.8477 4.14844 16.6953 4.44531 17.5781 4.82812L16.4062 7.65234C15.4922 7.27734 14.7344 7.01562 14.1328 6.86719C13.5391 6.71875 12.9531 6.64453 12.375 6.64453C11.6875 6.64453 11.1602 6.80469 10.793 7.125C10.4258 7.44531 10.2422 7.86328 10.2422 8.37891C10.2422 8.69922 10.3164 8.98047 10.4648 9.22266C10.6133 9.45703 10.8477 9.6875 11.168 9.91406C11.4961 10.1328 12.2656 10.5312 13.4766 11.1094C15.0781 11.875 16.1758 12.6445 16.7695 13.418C17.3633 14.1836 17.6602 15.125 17.6602 16.2422Z" fill="#DADADA"/>
</svg>
