<svg width="24" height="24" viewBox="0 0 24 24" fill="none" xmlns="http://www.w3.org/2000/svg">
<path d="M9.86719 11.4727H11.0391C12.1875 11.4727 13.0352 11.2812 13.582 10.8984C14.1289 10.5156 14.4023 9.91406 14.4023 9.09375C14.4023 8.28125 14.1211 7.70312 13.5586 7.35938C13.0039 7.01562 12.1406 6.84375 10.9688 6.84375H9.86719V11.4727ZM9.86719 14.4258V21H6.23438V3.86719H11.2266C13.5547 3.86719 15.2773 4.29297 16.3945 5.14453C17.5117 5.98828 18.0703 7.27344 18.0703 9C18.0703 10.0078 17.793 10.9062 17.2383 11.6953C16.6836 12.4766 15.8984 13.0898 14.8828 13.5352C17.4609 17.3867 19.1406 19.875 19.9219 21H15.8906L11.8008 14.4258H9.86719Z" fill="#DADADA"/>
</svg>
