<svg width="24" height="24" viewBox="0 0 24 24" fill="none" xmlns="http://www.w3.org/2000/svg">
<path d="M19.2422 21H15.1055L12.7852 12C12.6992 11.6797 12.5508 11.0195 12.3398 10.0195C12.1367 9.01172 12.0195 8.33594 11.9883 7.99219C11.9414 8.41406 11.8242 9.09375 11.6367 10.0312C11.4492 10.9609 11.3047 11.625 11.2031 12.0234L8.89453 21H4.76953L0.398438 3.86719H3.97266L6.16406 13.2188C6.54688 14.9453 6.82422 16.4414 6.99609 17.707C7.04297 17.2617 7.14844 16.5742 7.3125 15.6445C7.48438 14.707 7.64453 13.9805 7.79297 13.4648L10.2891 3.86719H13.7227L16.2188 13.4648C16.3281 13.8945 16.4648 14.5508 16.6289 15.4336C16.793 16.3164 16.918 17.0742 17.0039 17.707C17.082 17.0977 17.207 16.3398 17.3789 15.4336C17.5508 14.5195 17.707 13.7812 17.8477 13.2188L20.0273 3.86719H23.6016L19.2422 21Z" fill="#DADADA"/>
</svg>
