<svg width="24" height="24" viewBox="0 0 24 24" fill="none" xmlns="http://www.w3.org/2000/svg">
<path d="M13.7812 6.64453C12.4141 6.64453 11.3555 7.16016 10.6055 8.19141C9.85547 9.21484 9.48047 10.6445 9.48047 12.4805C9.48047 16.3008 10.9141 18.2109 13.7812 18.2109C14.9844 18.2109 16.4414 17.9102 18.1523 17.3086V20.3555C16.7461 20.9414 15.1758 21.2344 13.4414 21.2344C10.9492 21.2344 9.04297 20.4805 7.72266 18.9727C6.40234 17.457 5.74219 15.2852 5.74219 12.457C5.74219 10.6758 6.06641 9.11719 6.71484 7.78125C7.36328 6.4375 8.29297 5.41016 9.50391 4.69922C10.7227 3.98047 12.1484 3.62109 13.7812 3.62109C15.4453 3.62109 17.1172 4.02344 18.7969 4.82812L17.625 7.78125C16.9844 7.47656 16.3398 7.21094 15.6914 6.98438C15.043 6.75781 14.4062 6.64453 13.7812 6.64453Z" fill="#DADADA"/>
</svg>
