<svg width="24" height="24" viewBox="0 0 24 24" fill="none" xmlns="http://www.w3.org/2000/svg">
<path d="M20.1562 12.4102C20.1562 15.2461 19.4531 17.4258 18.0469 18.9492C16.6406 20.4727 14.625 21.2344 12 21.2344C9.375 21.2344 7.35938 20.4727 5.95312 18.9492C4.54688 17.4258 3.84375 15.2383 3.84375 12.3867C3.84375 9.53516 4.54688 7.35938 5.95312 5.85938C7.36719 4.35156 9.39062 3.59766 12.0234 3.59766C14.6562 3.59766 16.668 4.35547 18.0586 5.87109C19.457 7.38672 20.1562 9.56641 20.1562 12.4102ZM7.65234 12.4102C7.65234 14.3242 8.01562 15.7656 8.74219 16.7344C9.46875 17.7031 10.5547 18.1875 12 18.1875C14.8984 18.1875 16.3477 16.2617 16.3477 12.4102C16.3477 8.55078 14.9062 6.62109 12.0234 6.62109C10.5781 6.62109 9.48828 7.10938 8.75391 8.08594C8.01953 9.05469 7.65234 10.4961 7.65234 12.4102Z" fill="#DADADA"/>
</svg>
