<svg width="24" height="24" viewBox="0 0 24 24" fill="none" xmlns="http://www.w3.org/2000/svg">
<path d="M11.9648 11.3789H18.7617V20.2617C17.6602 20.6211 16.6211 20.8711 15.6445 21.0117C14.6758 21.1602 13.6836 21.2344 12.668 21.2344C10.082 21.2344 8.10547 20.4766 6.73828 18.9609C5.37891 17.4375 4.69922 15.2539 4.69922 12.4102C4.69922 9.64453 5.48828 7.48828 7.06641 5.94141C8.65234 4.39453 10.8477 3.62109 13.6523 3.62109C15.4102 3.62109 17.1055 3.97266 18.7383 4.67578L17.5312 7.58203C16.2812 6.95703 14.9805 6.64453 13.6289 6.64453C12.0586 6.64453 10.8008 7.17188 9.85547 8.22656C8.91016 9.28125 8.4375 10.6992 8.4375 12.4805C8.4375 14.3398 8.81641 15.7617 9.57422 16.7461C10.3398 17.7227 11.4492 18.2109 12.9023 18.2109C13.6602 18.2109 14.4297 18.1328 15.2109 17.9766V14.4023H11.9648V11.3789Z" fill="#DADADA"/>
</svg>
