<svg width="24" height="24" viewBox="0 0 24 24" fill="none" xmlns="http://www.w3.org/2000/svg">
<path d="M19.0312 3.86719V14.9531C19.0312 16.2188 18.7461 17.3281 18.1758 18.2812C17.6133 19.2344 16.7969 19.9648 15.7266 20.4727C14.6562 20.9805 13.3906 21.2344 11.9297 21.2344C9.72656 21.2344 8.01562 20.6719 6.79688 19.5469C5.57812 18.4141 4.96875 16.8672 4.96875 14.9062V3.86719H8.58984V14.3555C8.58984 15.6758 8.85547 16.6445 9.38672 17.2617C9.91797 17.8789 10.7969 18.1875 12.0234 18.1875C13.2109 18.1875 14.0703 17.8789 14.6016 17.2617C15.1406 16.6367 15.4102 15.6602 15.4102 14.332V3.86719H19.0312Z" fill="#DADADA"/>
</svg>
