<svg width="24" height="24" viewBox="0 0 24 24" fill="none" xmlns="http://www.w3.org/2000/svg">
<path d="M20.1562 10.4102C20.1562 12.4258 19.7969 14.1172 19.0781 15.4844C18.3672 16.8438 17.3203 17.8398 15.9375 18.4727L20.0625 23.0781H15.4102L12.2695 19.2344H12C9.375 19.2344 7.35938 18.4727 5.95312 16.9492C4.54688 15.4258 3.84375 13.2383 3.84375 10.3867C3.84375 7.53516 4.54688 5.35938 5.95312 3.85938C7.36719 2.35156 9.39062 1.59766 12.0234 1.59766C14.6562 1.59766 16.668 2.35547 18.0586 3.87109C19.457 5.38672 20.1562 7.56641 20.1562 10.4102ZM7.65234 10.4102C7.65234 12.3242 8.01562 13.7656 8.74219 14.7344C9.46875 15.7031 10.5547 16.1875 12 16.1875C14.8984 16.1875 16.3477 14.2617 16.3477 10.4102C16.3477 6.55078 14.9062 4.62109 12.0234 4.62109C10.5781 4.62109 9.48828 5.10938 8.75391 6.08594C8.01953 7.05469 7.65234 8.49609 7.65234 10.4102Z" fill="#DADADA"/>
</svg>
