<?xml version="1.0" encoding="utf-8"?>
<!-- Generator: Adobe Illustrator 25.2.0, SVG Export Plug-In . SVG Version: 6.00 Build 0)  -->
<svg version="1.1" id="Laag_1" xmlns="http://www.w3.org/2000/svg" xmlns:xlink="http://www.w3.org/1999/xlink" x="0px" y="0px"
	 width="220px" height="50px" viewBox="0 0 220 50" style="enable-background:new 0 0 220 50;" xml:space="preserve">
<style type="text/css">
	.st0{fill:#0061FF;}
	.st1{fill:#FFFFFF;}
</style>
<g transform="translate(0 3)">
	<path class="st0" d="M25.5,8.1l-12.8,8.1l12.8,8.1l-12.8,8.1L0,24.1l12.8-8.1L0,8.1L12.8,0L25.5,8.1L25.5,8.1z M12.7,34.8l12.8-8.1
		l12.8,8.1l-12.8,8.1L12.7,34.8z M25.5,24.1l12.8-8.1l-12.8-8L38.2,0L51,8.1l-12.8,8.1L51,24.2l-12.8,8.1L25.5,24.1L25.5,24.1z"/>
	<path class="st1" d="M61,8.1h10.3c6.6,0,12,3.8,12,12.4v1.8c0,8.7-5.1,12.6-11.8,12.6H61V8.1z M66.7,12.9v17h4.4
		c3.7,0,6.2-2.4,6.2-7.8v-1.4c0-5.4-2.6-7.8-6.4-7.8C71,12.9,66.7,12.9,66.7,12.9z M86.4,13.2H91l0.7,5c0.9-3.4,3.1-5.2,7.2-5.2h1.4
		v5.8H98c-4.7,0-5.8,1.6-5.8,6.2v9.9h-5.7L86.4,13.2L86.4,13.2L86.4,13.2z M101.5,24.5v-0.6c0-7.3,4.7-11.2,11.1-11.2
		c6.5,0,11.1,4,11.1,11.2v0.6c0,7.1-4.4,11-11.1,11C105.5,35.3,101.5,31.6,101.5,24.5z M117.8,24.4v-0.5c0-4-2-6.4-5.3-6.4
		c-3.2,0-5.3,2.2-5.3,6.5v0.5c0,3.9,2,6.1,5.3,6.1C115.8,30.4,117.8,28.3,117.8,24.4z M126.6,13.2h4.8l0.5,4.1
		c1.2-2.8,3.6-4.6,7.2-4.6c5.6,0,9.2,4,9.2,11.3v0.6c0,7.1-4.1,10.9-9.2,10.9c-3.5,0-5.8-1.5-7-4v11h-5.6L126.6,13.2L126.6,13.2z
		 M142.6,24.4v-0.5c0-4.3-2.2-6.4-5.2-6.4c-3.2,0-5.3,2.4-5.3,6.5v0.4c0,3.8,2,6.2,5.2,6.2C140.6,30.5,142.6,28.4,142.6,24.4
		L142.6,24.4z M156.8,30.8l-0.5,4h-4.9V5.9h5.6V17c1.2-2.8,3.7-4.4,7.1-4.4c5.2,0.1,9.1,3.6,9.1,10.8v0.7c0,7.2-3.7,11.3-9.2,11.3
		C160.3,35.3,157.9,33.7,156.8,30.8z M167.4,24.1v-0.5c0-4-2.2-6.2-5.2-6.2c-3.1,0-5.3,2.5-5.3,6.2v0.5c0,4,2.1,6.4,5.2,6.4
		C165.4,30.5,167.4,28.4,167.4,24.1L167.4,24.1z M175.7,24.5v-0.6c0-7.3,4.7-11.2,11.1-11.2c6.5,0,11.1,4,11.1,11.2v0.6
		c0,7.1-4.5,11-11.1,11C179.7,35.3,175.7,31.6,175.7,24.5z M192,24.4v-0.5c0-4-2-6.5-5.3-6.5c-3.2,0-5.3,2.2-5.3,6.5v0.5
		c0,3.9,2,6.1,5.3,6.1C190,30.4,192,28.3,192,24.4z M205.3,23.6l-7.7-10.4h6.6l4.4,6.5l4.5-6.5h6.5l-7.8,10.3l8.2,11.3h-6.4l-5-7.2
		l-4.9,7.2h-6.7C196.9,34.8,205.3,23.6,205.3,23.6z"/>
</g>
</svg>
