<?xml version="1.0" encoding="utf-8"?>
<!-- Generator: Adobe Illustrator 25.2.0, SVG Export Plug-In . SVG Version: 6.00 Build 0)  -->
<svg version="1.1" id="Laag_1" xmlns="http://www.w3.org/2000/svg" xmlns:xlink="http://www.w3.org/1999/xlink" x="0px" y="0px"
	 width="16px" height="16px" viewBox="0 0 16 16" style="enable-background:new 0 0 16 16;" xml:space="preserve">
<style type="text/css">
	.st0{fill:#D9D9D9;}
</style>
<path class="st0" d="M14.5,12.5C14.3,13,14,13.5,13.7,14c-0.5,0.6-0.8,1.1-1.1,1.3c-0.4,0.4-0.9,0.6-1.4,0.6c-0.4,0-0.8-0.1-1.3-0.3
	c-0.5-0.2-1-0.3-1.4-0.3c-0.5,0-0.9,0.1-1.5,0.3C6.4,15.9,6,16,5.7,16c-0.5,0-1-0.2-1.5-0.6c-0.3-0.3-0.7-0.7-1.2-1.4
	c-0.5-0.7-0.9-1.5-1.2-2.4c-0.3-1-0.5-2-0.5-2.9c0-1.1,0.2-2,0.7-2.8c0.4-0.6,0.9-1.1,1.5-1.5c0.6-0.4,1.3-0.5,2-0.6
	c0.4,0,0.9,0.1,1.5,0.4c0.6,0.2,1,0.4,1.2,0.4c0.1,0,0.6-0.1,1.3-0.4c0.7-0.3,1.3-0.4,1.8-0.3c1.3,0.1,2.4,0.6,3,1.6
	c-1.2,0.7-1.8,1.8-1.8,3.1c0,1,0.4,1.9,1.1,2.5c0.3,0.3,0.7,0.6,1.1,0.7C14.7,12,14.6,12.2,14.5,12.5z M11.4,0.3
	c0,0.8-0.3,1.5-0.9,2.2C9.9,3.4,9,3.9,8.1,3.8c0-0.1,0-0.2,0-0.3c0-0.8,0.3-1.6,0.9-2.3c0.3-0.3,0.7-0.6,1.1-0.8
	C10.6,0.1,11,0,11.4,0C11.4,0.1,11.4,0.2,11.4,0.3z"/>
</svg>
