<?xml version="1.0" encoding="utf-8"?>
<!-- Generator: Adobe Illustrator 25.2.0, SVG Export Plug-In . SVG Version: 6.00 Build 0)  -->
<svg version="1.1" id="Laag_1" xmlns="http://www.w3.org/2000/svg" xmlns:xlink="http://www.w3.org/1999/xlink" x="0px" y="0px"
	 width="24px" height="24px" viewBox="0 0 24 24" style="enable-background:new 0 0 24 24;" xml:space="preserve">
<style type="text/css">
	.st0{fill:#D9D9D9;}
</style>
<path class="st0" d="M13.7,4c0.5,0.1,0.8,1.5,1.9,1.8c0.8,0.2,1.7,0.1,1.8,0.6c-0.4,0.2-0.1,0.8,0.3,0.7C18,6.3,18.1,3.1,13.7,4z
	 M15.1,4.7c0-0.1,0.1,0,0.2-0.1c0.1-0.1,0.3-0.3,0.5-0.4c0.1,0,0.4,0,0.5,0c0.1,0,0,0.3,0,0.3c-0.1,0.1-0.6-0.1-0.6,0.2
	c0,0.5,0.7,0,1.1,0C16.9,6.1,14.8,5.7,15.1,4.7z M20.6,12.4l0,5.8c-0.6,0-1.3-0.3-2.4-0.2c-1,0.1-1.6,0.8-1.9,1.5
	c-0.2,0.4-0.3,1.2-0.3,1.3c0.1,0.1,2.3,1.4,4.6,1.4V24c-2.3,0-4.6-2.4-4.8-3.1c-0.1-0.3-0.2-0.9-0.2-1.1c0-0.5-0.1-1.1-0.1-1.8
	c-0.1-1.2-1.2-2.6-1.6-3.5c-0.1-0.3-0.4-1-0.5-1.3c-0.4-0.9-0.8-3.6-0.9-3.9c-1.3-6.2-1.7-6.9-1.7-6.9s0.5-0.2,1.5,2.4
	C12.5,5.3,12.8,6.3,13,7c0.2,0.7,0.4,1.6,0.6,2.4c0.2,0.8,0.4,1.6,0.6,2.4c0.3,1.3,1.3,2.3,1.6,3.6c0.2,0.8,0.6,1.2,1.1,1.5
	c1.1,0.7,2.9-0.2,3.1-1.2c0-0.1,0.1-0.4,0-0.6c-0.1-0.6-0.3-0.9-0.8-1.2c-0.1,0-0.6-0.2-0.9-0.5c-0.4-0.2-1.4-1.4-0.7-1.7
	c0.4-0.2,0.8,0.5,1.2,0.6C19.4,12.4,19.8,11.7,20.6,12.4z M10.5,5.7C10.7,6.3,11,7.7,10.1,9c-0.8,1.1-1.7,2.6-1.9,4.1
	c-0.1,0.8-0.1,1.5,0,2.2c0.1,0.8,0.2,2.1-0.5,2.6c-0.6,0.3,0.3-0.3-0.5-1.9c-0.4-1-0.8-2-0.5-3.6c0.1-0.6,0.5-1.6,0.9-2.2
	C8.2,9,10.4,7.1,10.5,5.7z M11,9.6c0,0,1.3,1,0.4,4.9c-0.6,2.7,0.1,4.6,0.9,5.5c2.2,2.4,1.7,3.1,1.7,3.1c-1.4-1.7-6.3-2.4-3.7-9.7
	C11.2,10.7,11,9.6,11,9.6z M6.1,4.9C6,4.4,5.9,4,5.9,3.7C6.1,2,7.7,1.3,8.1,1c0,0,0.7-0.5,0.8-1c0,0,0.7,1.8-1,2.8
	C7.1,3.4,6.5,4,6.1,4.9z M10.1,3.2c0.1,0.2,0.8,1.1-2,3.3c-2.7,2.2-1.9,3.7-1.9,3.7S3.4,8.6,6.7,6c3.3-2.7,2.7-3.2,2.7-3.2
	S9.9,2.7,10.1,3.2z"/>
</svg>
